 <svg  version="1.0" xmlns="http://www.w3.org/2000/svg"  width="300.000000pt" height="144.000000pt" viewBox="0 0 300.000000 144.000000"  preserveAspectRatio="xMidYMid meet">  <g transform="translate(0.000000,144.000000) scale(0.100000,-0.100000)" fill="#9f1740" stroke="none"> <path d="M378 956 c-53 -32 -53 -31 -3 -60 45 -27 45 -27 45 -81 0 -30 2 -55 5 -55 2 0 25 12 50 27 45 28 45 28 45 83 l0 56 -47 24 c-27 14 -50 25 -53 26 -3 1 -22 -8 -42 -20z m83 -37 c25 -17 29 -26 26 -56 -2 -20 -11 -39 -19 -44 -13 -7 -17 -2 -22 25 -3 18 -18 43 -31 56 -19 18 -22 26 -13 32 19 12 27 10 59 -13z"/> <path d="M258 883 l-48 -26 0 -56 0 -56 50 -27 50 -28 0 60 c0 33 3 60 8 60 4 0 24 11 46 23 l38 24 -45 26 c-25 15 -47 27 -49 27 -2 0 -24 -12 -50 -27z m82 -17 c0 -1 -11 -15 -25 -30 -14 -15 -25 -38 -25 -51 0 -44 -33 -40 -45 6 -9 36 27 79 66 79 16 0 29 -2 29 -4z"/> <path d="M837 884 c-4 -4 -7 -44 -7 -89 l0 -82 45 -1 c55 0 75 17 75 63 0 40 -27 60 -66 51 -22 -6 -24 -4 -22 25 3 30 -10 47 -25 33z m78 -114 c0 -33 -40 -41 -50 -11 -9 28 2 43 28 39 16 -2 22 -10 22 -28z"/> <path d="M1060 855 c0 -33 -2 -35 -25 -29 -52 13 -88 -62 -47 -98 10 -9 35 -16 60 -16 l42 1 0 88 c0 72 -3 89 -15 89 -10 0 -15 -11 -15 -35z m-5 -85 c0 -18 -6 -26 -23 -28 -24 -4 -38 18 -28 44 3 9 15 14 28 12 17 -2 23 -10 23 -28z"/> <path d="M1267 884 c-4 -4 -7 -45 -7 -91 0 -77 2 -83 20 -83 20 0 21 5 18 87 -3 79 -12 106 -31 87z"/> <path d="M2516 881 c-4 -6 -4 -22 0 -36 6 -24 4 -25 -19 -20 -40 10 -67 -10 -67 -50 0 -46 20 -63 75 -63 l46 1 -3 85 c-3 80 -15 111 -32 83z m-1 -91 c11 -18 -6 -50 -26 -50 -22 0 -34 22 -25 45 6 17 42 20 51 5z"/> <path d="M2707 884 c-4 -4 -7 -45 -7 -91 0 -77 2 -83 20 -83 20 0 21 5 18 87 -3 79 -12 106 -31 87z"/> <path d="M2050 795 c0 -69 3 -85 15 -85 10 0 15 11 15 35 0 44 11 44 41 0 13 -19 32 -35 42 -35 23 0 22 6 -13 49 l-29 38 29 34 c33 39 36 49 15 49 -8 0 -27 -16 -42 -35 -15 -19 -31 -35 -35 -35 -5 0 -8 16 -8 35 0 24 -5 35 -15 35 -12 0 -15 -16 -15 -85z"/> <path d="M686 798 c-14 -40 -26 -76 -26 -80 0 -17 29 -7 35 12 5 15 15 20 40 20 25 0 35 -5 40 -20 3 -11 13 -20 21 -20 18 0 18 -1 -12 86 -22 62 -30 74 -49 74 -19 0 -27 -12 -49 -72z m68 -5 c6 -20 4 -23 -18 -23 -30 0 -29 -2 -15 40 12 34 19 30 33 -17z"/> <path d="M1910 850 c0 -11 -7 -20 -15 -20 -8 0 -15 -5 -15 -10 0 -6 7 -13 15 -16 10 -4 15 -20 15 -44 0 -25 5 -40 16 -44 25 -10 34 -7 34 9 0 8 -4 15 -10 15 -5 0 -10 14 -10 30 0 17 5 30 10 30 6 0 10 7 10 15 0 8 -4 15 -10 15 -5 0 -10 9 -10 20 0 11 -7 20 -15 20 -8 0 -15 -9 -15 -20z"/> <path d="M1120 781 c0 -58 11 -69 68 -68 l42 0 0 58 c0 45 -3 59 -14 59 -10 0 -16 -14 -18 -42 -2 -35 -7 -43 -23 -43 -16 0 -21 8 -23 43 -2 28 -8 42 -18 42 -10 0 -14 -13 -14 -49z"/> <path d="M1332 818 c-21 -21 -13 -39 24 -54 25 -10 33 -19 26 -26 -6 -6 -16 -5 -30 3 -25 16 -40 5 -22 -16 25 -30 80 -15 80 22 0 18 -8 27 -30 34 -16 6 -30 15 -30 21 0 5 13 7 30 3 31 -7 42 8 14 19 -25 9 -49 7 -62 -6z"/> <path d="M1440 815 c-17 -21 -4 -32 20 -17 26 16 40 15 40 -2 0 -7 -14 -16 -30 -20 -63 -12 -46 -66 21 -63 l39 1 0 46 c0 25 -5 51 -12 58 -17 17 -63 15 -78 -3z m52 -77 c-11 -11 -32 -3 -32 12 0 12 34 18 39 7 2 -5 -1 -13 -7 -19z"/> <path d="M1560 768 c0 -51 2 -59 18 -56 13 2 16 11 14 36 -4 34 13 66 29 56 5 -3 9 -25 9 -50 0 -38 3 -44 20 -44 18 0 20 6 19 38 -3 49 7 68 27 51 10 -8 14 -26 12 -48 -2 -27 1 -36 15 -39 14 -3 17 4 17 46 0 28 -6 54 -12 60 -7 5 -48 10 -90 9 l-78 0 0 -59z"/> <path d="M1777 812 c-42 -46 3 -116 60 -96 42 15 40 34 -3 31 -24 -1 -39 3 -42 12 -3 10 5 12 37 9 36 -3 41 -1 41 17 0 45 -61 62 -93 27z m61 -19 c2 -8 -6 -13 -22 -13 -25 0 -33 10 -19 24 10 10 36 3 41 -11z"/> <path d="M2210 815 c-18 -21 -3 -32 22 -16 14 9 24 9 31 2 7 -7 5 -12 -9 -16 -38 -12 -49 -23 -49 -46 0 -22 4 -24 48 -25 l47 -2 0 47 c0 26 -5 52 -12 59 -17 17 -63 15 -78 -3z m49 -76 c-20 -13 -29 -11 -29 5 0 16 33 27 39 13 2 -5 -3 -13 -10 -18z"/> <path d="M2320 815 c0 -8 9 -15 20 -15 25 0 25 -7 0 -45 -11 -16 -20 -33 -20 -37 0 -5 20 -8 45 -8 33 0 45 4 45 15 0 9 -9 15 -25 15 l-25 0 25 40 c14 22 25 42 25 45 0 3 -20 5 -45 5 -33 0 -45 -4 -45 -15z"/> <path d="M2581 816 c-15 -18 5 -34 22 -17 15 15 37 14 37 -3 0 -7 -14 -16 -30 -20 -63 -12 -46 -66 21 -63 l39 1 0 52 c0 38 -4 53 -16 58 -27 10 -61 7 -73 -8z m51 -78 c-6 -6 -16 -7 -23 -3 -9 6 -7 12 7 22 21 15 34 -1 16 -19z"/> <path d="M325 735 l0 -55 50 -26 50 -27 48 29 c47 29 47 29 47 81 0 29 -2 53 -5 53 -3 0 -24 -12 -48 -27 l-42 -26 -47 26 c-27 15 -49 27 -51 27 -1 0 -2 -25 -2 -55z m162 -12 c5 -15 -24 -42 -54 -49 -26 -7 -72 19 -81 45 -4 11 5 12 39 7 24 -3 51 -2 59 4 17 11 32 8 37 -7z"/> </g> </svg> 